<svg width="24" height="24" viewBox="0 0 24 24" fill="none" xmlns="http://www.w3.org/2000/svg">
<path d="M13 5L13 3L21 3L21 11L19 11L19 6.41419L13.6361 11.7781C13.2455 12.1686 12.6124 12.1686 12.2218 11.7781C11.8313 11.3876 11.8313 10.7544 12.2218 10.3639L17.5858 5L13 5Z" fill="black"/>
<path fill-rule="evenodd" clip-rule="evenodd" d="M11 19C11 20.1046 10.1046 21 9 21L5 21C3.89543 21 3 20.1046 3 19L3 15C3 13.8954 3.89543 13 5 13L9 13C10.1046 13 11 13.8954 11 15L11 19ZM9 19L5 19L5 15L9 15L9 19Z" fill="black"/>
</svg>
