<svg width="39" height="39" viewBox="0 0 39 39" fill="none" xmlns="http://www.w3.org/2000/svg">
<path d="M22.75 17.875H16.25V21.125H22.75V17.875Z" fill="black"/>
<path fill-rule="evenodd" clip-rule="evenodd" d="M11.375 8.125V6.5C11.375 4.7051 12.83 3.25 14.625 3.25H24.375C26.17 3.25 27.625 4.7051 27.625 6.5V8.125H32.5C35.1924 8.125 37.375 10.3076 37.375 13V29.25C37.375 31.9424 35.1924 34.125 32.5 34.125H6.5C3.8076 34.125 1.625 31.9424 1.625 29.25V13C1.625 10.3076 3.8076 8.125 6.5 8.125H11.375ZM14.625 6.5H24.375V8.125H14.625V6.5ZM6.5 11.375C5.6026 11.375 4.875 12.1025 4.875 13V22.75H34.125V13C34.125 12.1025 33.3974 11.375 32.5 11.375H6.5ZM4.875 29.25V26H34.125V29.25C34.125 30.1475 33.3974 30.875 32.5 30.875H6.5C5.6026 30.875 4.875 30.1475 4.875 29.25Z" fill="black"/>
</svg>
