<svg width="11" height="9" viewBox="0 0 11 9" fill="none" xmlns="http://www.w3.org/2000/svg">
<path d="M1.40998 3.53003C1.48978 3.53373 1.56803 3.55333 1.64015 3.58767C1.71227 3.62201 1.77681 3.67041 1.82998 3.73003L1.40998 3.53003ZM1.40998 3.53003H0.589981C0.525426 3.53261 0.464377 3.56009 0.419634 3.6067C0.374892 3.6533 0.34993 3.71542 0.349981 3.78003C0.335814 3.82903 0.335814 3.88103 0.349981 3.93003L3.60998 8.00003C3.65281 8.05459 3.70611 8.10002 3.76676 8.13367C3.82741 8.16731 3.89417 8.18849 3.96313 8.19594C4.03208 8.2034 4.10183 8.19698 4.16827 8.17707C4.2347 8.15717 4.29649 8.12417 4.34998 8.08003L4.43998 8.00003L10.16 0.74003C10.2029 0.693801 10.2267 0.63308 10.2267 0.57003C10.2267 0.50698 10.2029 0.446259 10.16 0.40003C10.111 0.385862 10.059 0.385862 10.01 0.40003H9.18998C9.11081 0.399252 9.03254 0.416919 8.96137 0.451633C8.89021 0.486347 8.82811 0.537154 8.77998 0.60003L3.99998 6.52003M1.38998 3.52003L3.99998 6.52003Z" fill="white"/>
<path d="M1.40998 3.53003C1.48978 3.53373 1.56803 3.55333 1.64015 3.58767C1.71227 3.62201 1.77681 3.67041 1.82998 3.73003L1.40998 3.53003ZM1.40998 3.53003H0.589981C0.525426 3.53261 0.464377 3.56009 0.419634 3.6067C0.374892 3.6533 0.34993 3.71542 0.349981 3.78003C0.335814 3.82903 0.335814 3.88103 0.349981 3.93003L3.60998 8.00003C3.65281 8.05459 3.70611 8.10002 3.76676 8.13367C3.82741 8.16731 3.89417 8.18849 3.96313 8.19594C4.03208 8.2034 4.10183 8.19698 4.16827 8.17707C4.2347 8.15717 4.29649 8.12417 4.34998 8.08003L4.43998 8.00003L10.16 0.74003C10.2029 0.693801 10.2267 0.63308 10.2267 0.57003C10.2267 0.50698 10.2029 0.446259 10.16 0.40003C10.111 0.385862 10.059 0.385862 10.01 0.40003H9.18998C9.11081 0.399252 9.03254 0.416919 8.96137 0.451633C8.89021 0.486347 8.82811 0.537154 8.77998 0.60003L3.99998 6.52003M3.99998 6.52003L1.38998 3.52003M3.99998 6.52003L1.81998 3.73003" stroke="white" stroke-width="0.3"/>
</svg>
