<svg width="39" height="39" viewBox="0 0 39 39" fill="none" xmlns="http://www.w3.org/2000/svg">
<path d="M15.0959 13.195L21.4009 19.5L15.0959 25.805C14.8297 26.1159 14.6906 26.5157 14.7064 26.9247C14.7222 27.3337 14.8917 27.7216 15.1811 28.0111C15.4705 28.3005 15.8585 28.47 16.2674 28.4858C16.6764 28.5016 17.0763 28.3625 17.3872 28.0962L24.8459 20.6375C25.1486 20.333 25.3184 19.9212 25.3184 19.4919C25.3184 19.0626 25.1486 18.6507 24.8459 18.3462L17.3872 10.8875C17.0827 10.5848 16.6708 10.415 16.2415 10.415C15.8122 10.415 15.4004 10.5848 15.0959 10.8875C14.9436 11.0386 14.8227 11.2183 14.7402 11.4163C14.6577 11.6143 14.6152 11.8267 14.6152 12.0413C14.6152 12.2558 14.6577 12.4682 14.7402 12.6662C14.8227 12.8642 14.9436 13.0439 15.0959 13.195Z" fill="#48E0E9"/>
</svg>
