<svg width="42" height="42" viewBox="0 0 42 42" fill="none" xmlns="http://www.w3.org/2000/svg">
<path fill-rule="evenodd" clip-rule="evenodd" d="M6.12474 22.5741C4.7579 23.9409 4.7579 26.157 6.12474 27.5238L12.876 34.2751H7.14986C6.18336 34.2751 5.39986 35.0586 5.39986 36.0251C5.39986 36.9916 6.18336 37.7751 7.14986 37.7751H35.1499C36.1164 37.7751 36.8999 36.9916 36.8999 36.0251C36.8999 35.0586 36.1164 34.2751 35.1499 34.2751H19.1724L35.8232 17.6243C37.1901 16.2575 37.1901 14.0414 35.8232 12.6746L28.3986 5.24998C27.0318 3.88315 24.8157 3.88314 23.4489 5.24998L6.12474 22.5741ZM13.6949 19.9537L8.59961 25.049L16.0242 32.4736L21.1195 27.3783L13.6949 19.9537ZM16.1698 17.4788L23.5944 24.9034L33.3483 15.1495L25.9237 7.72485L16.1698 17.4788Z" fill="black"/>
</svg>
