<svg width="247" height="247" viewBox="0 0 247 247" fill="none" xmlns="http://www.w3.org/2000/svg">
<path d="M126.296 0H120.704C115.428 0 111.15 4.27766 111.15 9.55441V39.8456C111.15 45.1223 115.428 49.4 120.704 49.4H126.296C131.572 49.4 135.85 45.1223 135.85 39.8456V9.55441C135.85 4.27766 131.572 0 126.296 0Z" fill="#1B1B1B"/>
<path d="M64.1352 15.1742L59.3709 17.9248C54.7796 20.5756 53.2065 26.4465 55.8573 31.0377L70.958 57.1929C73.6087 61.7842 79.4796 63.3573 84.0709 60.7065L88.8352 57.9558C93.4265 55.305 94.9996 49.4342 92.3488 44.8429L77.2481 18.6877C74.5973 14.0965 68.7265 12.5234 64.1352 15.1742Z" fill="#323232"/>
<path d="M60.7059 84.0586L57.9552 88.8414C56.6784 91.0423 54.5809 92.647 52.1226 93.3036C49.6644 93.9603 47.046 93.6153 44.8418 92.3443L18.6822 77.2436C17.5908 76.6145 16.6341 75.7764 15.8667 74.7772C15.0993 73.7781 14.5364 72.6376 14.21 71.4208C13.8836 70.204 13.8003 68.9348 13.9647 67.6857C14.1291 66.4367 14.538 65.2323 15.1681 64.1414L17.9637 59.3698C18.594 58.278 19.4331 57.321 20.4332 56.5535C21.4333 55.786 22.5749 55.223 23.7926 54.8967C25.0103 54.5704 26.2803 54.4871 27.5302 54.6516C28.7801 54.8162 29.9854 55.2253 31.0771 55.8557L57.1918 70.9564C58.2832 71.5855 59.24 72.4236 60.0073 73.4228C60.7747 74.4219 61.3377 75.5624 61.664 76.7792C61.9904 77.996 62.0737 79.2652 61.9093 80.5143C61.745 81.7633 61.336 82.9677 60.7059 84.0586V84.0586Z" fill="#474747"/>
<path d="M0 120.704L0 126.296C0 131.572 4.27766 135.85 9.55441 135.85H39.8456C45.1223 135.85 49.4 131.572 49.4 126.296V120.704C49.4 115.428 45.1223 111.15 39.8456 111.15H9.55441C4.27766 111.15 0 115.428 0 120.704Z" fill="#5E5E5E"/>
<path d="M15.1628 182.864L17.9135 187.629C20.5643 192.22 26.4351 193.793 31.0264 191.142L57.1815 176.042C61.7728 173.391 63.3459 167.52 60.6951 162.929L57.9444 158.164C55.2937 153.573 49.4228 152 44.8315 154.651L18.6764 169.752C14.0851 172.402 12.512 178.273 15.1628 182.864Z" fill="#737373"/>
<path d="M59.376 229.076L64.1404 231.826C68.7316 234.477 74.6025 232.904 77.2533 228.313L92.354 202.158C95.0047 197.566 93.4316 191.695 88.8404 189.045L84.076 186.294C79.4848 183.643 73.6139 185.216 70.9631 189.808L55.8624 215.963C53.2117 220.554 54.7848 226.425 59.376 229.076Z" fill="#868686"/>
<path d="M120.704 247H126.296C131.572 247 135.85 242.722 135.85 237.446V207.154C135.85 201.878 131.572 197.6 126.296 197.6H120.704C115.428 197.6 111.15 201.878 111.15 207.154V237.446C111.15 242.722 115.428 247 120.704 247Z" fill="#9A9A9A"/>
<path d="M182.865 231.838L187.629 229.087C192.22 226.436 193.793 220.565 191.142 215.974L176.042 189.819C173.391 185.228 167.52 183.654 162.929 186.305L158.165 189.056C153.573 191.707 152 197.578 154.651 202.169L169.752 228.324C172.402 232.915 178.273 234.488 182.865 231.838Z" fill="#AFAFAF"/>
<path d="M229.075 187.624L231.826 182.86C234.477 178.268 232.904 172.397 228.312 169.747L202.157 154.646C197.566 151.995 191.695 153.568 189.044 158.16L186.293 162.924C183.643 167.515 185.216 173.386 189.807 176.037L215.962 191.137C220.554 193.788 226.424 192.215 229.075 187.624Z" fill="#C2C2C2"/>
<path d="M247 126.296V120.704C247 115.428 242.722 111.15 237.446 111.15H207.154C201.878 111.15 197.6 115.428 197.6 120.704V126.296C197.6 131.572 201.878 135.85 207.154 135.85H237.446C242.722 135.85 247 131.572 247 126.296Z" fill="#D7D7D7"/>
<path d="M231.826 64.1351L229.076 59.3707C226.425 54.7795 220.554 53.2064 215.963 55.8572L189.807 70.9578C185.216 73.6086 183.643 79.4795 186.294 84.0707L189.045 88.8351C191.695 93.4264 197.566 94.9994 202.157 92.3487L228.313 77.248C232.904 74.5972 234.477 68.7264 231.826 64.1351Z" fill="#EBEBEB"/>
<path d="M187.635 17.9248L182.871 15.1742C178.28 12.5234 172.409 14.0965 169.758 18.6877L154.658 44.8429C152.007 49.4342 153.58 55.305 158.171 57.9558L162.935 60.7065C167.527 63.3573 173.398 61.7842 176.048 57.1929L191.149 31.0378C193.8 26.4465 192.227 20.5756 187.635 17.9248Z" fill="#FAFAFA"/>
</svg>
