<svg width="33" height="33" viewBox="0 0 33 33" fill="none" xmlns="http://www.w3.org/2000/svg">
<path fill-rule="evenodd" clip-rule="evenodd" d="M17.875 13.75C17.875 15.2688 19.1062 16.5 20.625 16.5C22.1438 16.5 23.375 15.2688 23.375 13.75V6.875C23.375 5.35622 22.1438 4.125 20.625 4.125C19.1062 4.125 17.875 5.35622 17.875 6.875V13.75ZM6.875 11C5.35622 11 4.125 12.2312 4.125 13.75C4.125 15.2688 5.35622 16.5 6.875 16.5H13.75C15.2688 16.5 16.5 15.2688 16.5 13.75C16.5 12.2312 15.2688 11 13.75 11H6.875ZM20.625 17.875C19.1062 17.875 17.875 19.1062 17.875 20.625C17.875 22.1438 19.1062 23.375 20.625 23.375H27.5C29.0188 23.375 30.25 22.1438 30.25 20.625C30.25 19.1062 29.0188 17.875 27.5 17.875H20.625ZM13.75 30.25C12.2312 30.25 11 29.0188 11 27.5L11 20.625C11 19.1062 12.2312 17.875 13.75 17.875C15.2688 17.875 16.5 19.1062 16.5 20.625V27.5C16.5 29.0188 15.2688 30.25 13.75 30.25ZM11 6.875C11 5.35622 12.2312 4.125 13.75 4.125C15.2688 4.125 16.5 5.35622 16.5 6.875V9.625H13.75C12.2312 9.625 11 8.39378 11 6.875ZM4.125 20.625C4.125 22.1438 5.35622 23.375 6.875 23.375C8.39378 23.375 9.625 22.1438 9.625 20.625V17.875H6.875C5.35622 17.875 4.125 19.1062 4.125 20.625ZM23.375 27.5C23.375 29.0188 22.1438 30.25 20.625 30.25C19.1062 30.25 17.875 29.0188 17.875 27.5V24.75H20.625C22.1438 24.75 23.375 25.9812 23.375 27.5ZM30.25 13.75C30.25 12.2312 29.0188 11 27.5 11C25.9812 11 24.75 12.2312 24.75 13.75V16.5H27.5C29.0188 16.5 30.25 15.2688 30.25 13.75Z" fill="black"/>
</svg>
