<svg width="35" height="35" viewBox="0 0 35 35" fill="none" xmlns="http://www.w3.org/2000/svg">
<path d="M17.5 0C7.84828 0 0 7.84828 0 17.5C0 27.1517 7.84828 35 17.5 35C27.1517 35 35 27.1517 35 17.5C35 7.84828 27.1517 0 17.5 0ZM27.6861 12.6574L15.9303 24.4132C15.6131 24.8974 15.0954 25.198 14.511 25.198C13.9599 25.198 13.4089 24.9141 13.0916 24.4466L7.31393 18.6856C6.99666 18.3683 6.82968 17.9509 6.82968 17.5C6.82968 17.0491 6.99666 16.6317 7.31393 16.3144C7.96517 15.6632 9.01718 15.6632 9.66842 16.3144L14.4943 21.1403L25.3316 10.303C25.6322 9.98569 26.0663 9.802 26.5005 9.802C26.9513 9.802 27.3688 9.98569 27.6861 10.303C28.0033 10.6035 28.1703 11.021 28.1703 11.4719C28.1703 11.9227 28.0033 12.3402 27.6861 12.6574Z" fill="#83FF06"/>
</svg>
