<svg width="31" height="31" viewBox="0 0 31 31" fill="none" xmlns="http://www.w3.org/2000/svg">
<path d="M3.0906 15.8651C3.1613 15.9359 3.24607 15.992 3.33995 16.0309C3.4335 16.0696 3.53276 16.0899 3.63243 16.0899C3.73211 16.0899 3.83136 16.0696 3.92491 16.0309C4.01879 15.992 4.10356 15.9359 4.17427 15.8651L6.82129 13.2188C7.12036 12.9197 7.12036 12.4352 6.82129 12.1362C6.52222 11.8371 6.03772 11.8371 5.73865 12.1362L4.59498 13.2794C5.55846 8.13266 10.0777 4.22271 15.5 4.22271C20.4029 4.22271 24.7858 7.50577 26.1582 12.2064C26.2767 12.6124 26.701 12.8457 27.1077 12.7268C27.5137 12.6079 27.7466 12.1833 27.6281 11.7773C26.0662 6.42762 21.0788 2.69146 15.5 2.69146C9.11779 2.69146 3.83991 7.45297 2.99756 13.607L1.52621 12.1362C1.22714 11.8371 0.742645 11.8371 0.443573 12.1362C0.144501 12.4352 0.144501 12.9197 0.443573 13.2188L3.0906 15.8651Z" fill="black"/>
<path d="M28.0024 17.0417L29.4738 18.5131C29.6233 18.6627 29.8192 18.7374 30.0151 18.7374C30.211 18.7374 30.4069 18.6627 30.5564 18.5131C30.8555 18.2141 30.8555 17.7296 30.5564 17.4305L27.9094 14.7835C27.8387 14.7126 27.7539 14.6565 27.66 14.6176C27.4729 14.5403 27.2622 14.5403 27.0752 14.6176C26.9812 14.6565 26.8964 14.7126 26.8257 14.7835L24.1787 17.4305C23.8796 17.7296 23.8796 18.2141 24.1787 18.5131C24.4778 18.8122 24.9623 18.8122 25.2613 18.5131L26.405 17.3695C25.4414 22.5166 20.9223 26.4266 15.5 26.4266C10.5885 26.4266 6.20334 23.136 4.83621 18.4242C4.71845 18.0174 4.29451 17.7834 3.8874 17.9023C3.48141 18.0197 3.24776 18.4443 3.36552 18.8503C4.92144 24.2127 9.91146 27.9578 15.5 27.9578C21.8822 27.9578 27.16 23.1963 28.0024 17.0417Z" fill="black"/>
<path d="M18.8414 29.0592C17.3707 29.4166 15.8323 29.5354 14.2925 29.4061C14.0891 29.3934 13.897 29.5444 13.879 29.7553C13.8611 29.9661 14.0177 30.1508 14.2282 30.1687C14.6514 30.2046 15.0794 30.2226 15.5 30.2226C16.6907 30.2226 17.8758 30.0812 19.0216 29.8039C19.2272 29.7538 19.3532 29.5467 19.3034 29.341C19.2534 29.1354 19.0462 29.0136 18.8414 29.0592Z" fill="black"/>
<path d="M6.28371 3.61933C4.57975 4.96216 3.16401 6.69379 2.18979 8.62505C2.09446 8.81422 2.17035 9.0445 2.35913 9.13946C2.41446 9.16712 2.47316 9.18058 2.5311 9.18058C2.67129 9.18058 2.80587 9.10357 2.87317 8.97048C3.79767 7.13717 5.14088 5.49526 6.75774 4.22047C6.92372 4.08962 6.95214 3.84887 6.82129 3.68288C6.69082 3.51765 6.45007 3.48923 6.28371 3.61933Z" fill="black"/>
<path d="M12.2296 0.786365C10.9769 1.06749 9.76417 1.51087 8.62508 2.10453C8.43741 2.20247 8.36488 2.43351 8.46246 2.62117C8.53087 2.75202 8.66396 2.82679 8.80228 2.82679C8.86172 2.82679 8.92228 2.81258 8.97873 2.78342C10.0591 2.22042 11.2094 1.80022 12.3971 1.53405C12.6035 1.48769 12.7332 1.28283 12.6869 1.07647C12.6405 0.870853 12.4356 0.743747 12.2296 0.786365Z" fill="black"/>
<path d="M20.7177 29.2566C20.7637 29.2566 20.81 29.2483 20.8553 29.2311C23.6112 28.1687 25.9716 26.3271 27.6812 23.9039C27.8031 23.7312 27.7616 23.4927 27.5889 23.3708C27.4158 23.2474 27.1777 23.2893 27.0554 23.4628C25.4333 25.7611 23.1944 27.5092 20.5801 28.5163C20.3827 28.5926 20.2844 28.8139 20.3603 29.0113C20.419 29.1631 20.564 29.2566 20.7177 29.2566Z" fill="black"/>
<path d="M19.2806 6.42537C19.0862 6.33939 18.8612 6.43061 18.7775 6.62501C18.6937 6.81865 18.7827 7.04445 18.9771 7.12819C19.1229 7.191 19.2679 7.25829 19.4115 7.32932C19.4661 7.35624 19.524 7.36895 19.5808 7.36895C19.7218 7.36895 19.8575 7.29119 19.9244 7.15586C20.0182 6.9667 19.9405 6.73716 19.7509 6.64295C19.5954 6.56594 19.4392 6.49416 19.2806 6.42537Z" fill="black"/>
<path d="M20.7682 7.22539C20.591 7.111 20.3543 7.16034 20.238 7.3368C20.1225 7.514 20.1726 7.75101 20.3495 7.8669C20.5177 7.97681 20.6833 8.0927 20.8463 8.21532C21.0553 8.37308 21.2556 8.53832 21.4474 8.70879C21.5203 8.77384 21.6112 8.80599 21.702 8.80599C21.8071 8.80599 21.9121 8.76262 21.9876 8.67814C22.1286 8.52038 22.1147 8.27813 21.9566 8.13756C21.7491 7.95214 21.533 7.77344 21.3069 7.60372C21.1304 7.47063 20.9506 7.34427 20.7682 7.22539Z" fill="black"/>
</svg>
