<svg width="18" height="18" viewBox="0 0 18 18" fill="none" xmlns="http://www.w3.org/2000/svg">
<g id="eye-slash">
<path id="Vector" d="M10.8975 7.10256L7.1025 10.8976C6.615 10.4101 6.315 9.74256 6.315 9.00006C6.315 7.51506 7.515 6.31506 9 6.31506C9.7425 6.31506 10.41 6.61506 10.8975 7.10256Z" stroke="#04060F" stroke-width="1.5" stroke-linecap="round" stroke-linejoin="round"/>
<path id="Vector_2" d="M13.365 4.32749C12.0525 3.33749 10.5525 2.79749 9 2.79749C6.3525 2.79749 3.885 4.35749 2.1675 7.05749C1.4925 8.11499 1.4925 9.89249 2.1675 10.95C2.76 11.88 3.45 12.6825 4.2 13.3275" stroke="#04060F" stroke-width="1.5" stroke-linecap="round" stroke-linejoin="round"/>
<path id="Vector_3" d="M6.315 14.6475C7.17 15.0075 8.0775 15.2025 9 15.2025C11.6475 15.2025 14.115 13.6425 15.8325 10.9425C16.5075 9.88501 16.5075 8.10751 15.8325 7.05001C15.585 6.66001 15.315 6.29251 15.0375 5.94751" stroke="#04060F" stroke-width="1.5" stroke-linecap="round" stroke-linejoin="round"/>
<path id="Vector_4" d="M11.6325 9.5249C11.4375 10.5824 10.575 11.4449 9.51752 11.6399" stroke="#04060F" stroke-width="1.5" stroke-linecap="round" stroke-linejoin="round"/>
<path id="Vector_5" d="M7.1025 10.8975L1.5 16.5" stroke="#04060F" stroke-width="1.5" stroke-linecap="round" stroke-linejoin="round"/>
<path id="Vector_6" d="M16.5 1.5L10.8975 7.1025" stroke="#04060F" stroke-width="1.5" stroke-linecap="round" stroke-linejoin="round"/>
</g>
</svg>
