<svg width="38" height="38" viewBox="0 0 38 38" fill="none" xmlns="http://www.w3.org/2000/svg">
<path d="M18.9688 16.0002C18.4391 16.0061 17.9343 16.1632 17.5652 16.4368C17.1961 16.7105 16.9929 17.0784 17.0002 17.4599V27.5395C16.9965 27.7303 17.0454 27.9198 17.1442 28.0969C17.243 28.2739 17.3898 28.4351 17.5758 28.571C17.7619 28.7069 17.9836 28.8148 18.2281 28.8884C18.4726 28.9621 18.735 29 19 29C19.265 29 19.5274 28.9621 19.7719 28.8884C20.0164 28.8148 20.2381 28.7069 20.4242 28.571C20.6102 28.4351 20.757 28.2739 20.8558 28.0969C20.9546 27.9198 21.0035 27.7303 20.9998 27.5395V17.4599C21.0035 17.2672 20.9534 17.076 20.8526 16.8975C20.7518 16.719 20.6023 16.557 20.4129 16.4208C20.2235 16.2847 19.9981 16.1774 19.7501 16.1051C19.502 16.0329 19.2363 15.9972 18.9688 16.0002H18.9688Z" fill="#0168FF"/>
<path d="M19 12C20.1046 12 21 11.1046 21 10C21 8.89543 20.1046 8 19 8C17.8954 8 17 8.89543 17 10C17 11.1046 17.8954 12 19 12Z" fill="#0168FF"/>
<path d="M19 0C8.52272 0 0 8.52272 0 19C0 29.4773 8.52272 38 19 38C29.4773 38 38 29.4773 38 19C38 8.52272 29.4773 0 19 0ZM19 2.71429C28.0105 2.71429 35.2857 9.98952 35.2857 19C35.2857 28.0105 28.0105 35.2857 19 35.2857C9.98952 35.2857 2.71429 28.0105 2.71429 19C2.71429 9.98952 9.98952 2.71429 19 2.71429Z" fill="#0168FF"/>
</svg>
