<svg width="23" height="21" viewBox="0 0 23 21" fill="none" xmlns="http://www.w3.org/2000/svg">
<path d="M0.625 2.04183C0.625 2.70917 1.16599 3.25016 1.83333 3.25016H21.1667C21.834 3.25016 22.375 2.70917 22.375 2.04183C22.375 1.37449 21.834 0.833496 21.1667 0.833496H1.83333C1.16599 0.833496 0.625 1.37449 0.625 2.04183Z" fill="black"/>
<path d="M11.5 20.1668C12.1673 20.1668 12.7083 19.6258 12.7083 18.9585V15.3335H16.3333C17.0007 15.3335 17.5417 14.7925 17.5417 14.1252C17.5417 13.4578 17.0007 12.9168 16.3333 12.9168H12.7083V9.29183C12.7083 8.62448 12.1673 8.0835 11.5 8.0835C10.8327 8.0835 10.2917 8.62448 10.2917 9.29183V12.9168H6.66667C5.99932 12.9168 5.45833 13.4578 5.45833 14.1252C5.45833 14.7925 5.99932 15.3335 6.66667 15.3335H10.2917V18.9585C10.2917 19.6258 10.8327 20.1668 11.5 20.1668Z" fill="black"/>
</svg>
