<svg width="20" height="20" viewBox="0 0 20 20" fill="none" xmlns="http://www.w3.org/2000/svg">
<g id="question-help">
<g id="Vector">
<path fill-rule="evenodd" clip-rule="evenodd" d="M10.0001 1.66666C5.39771 1.66666 1.66675 5.39762 1.66675 10C1.66675 14.6024 5.39771 18.3333 10.0001 18.3333C14.6025 18.3333 18.3334 14.6024 18.3334 10C18.3334 5.39762 14.6025 1.66666 10.0001 1.66666ZM3.33341 10C3.33341 13.6819 6.31818 16.6667 10.0001 16.6667C13.682 16.6667 16.6667 13.6819 16.6667 10C16.6667 6.3181 13.682 3.33333 10.0001 3.33333C6.31818 3.33333 3.33341 6.3181 3.33341 10Z" fill="#92EDFF"/>
<path d="M9.3243 13.8993C9.3243 13.5214 9.63057 13.2152 10.0084 13.2152C10.3862 13.2152 10.6925 13.5214 10.6925 13.8993C10.6925 14.2771 10.3862 14.5833 10.0084 14.5833C9.63057 14.5833 9.3243 14.2771 9.3243 13.8993ZM10.2364 5.41666C12.6991 5.517 13.7663 7.99792 12.316 9.8495C11.9329 10.3056 11.3218 10.6065 11.0117 10.9988C10.8535 11.1931 10.7737 11.4032 10.7334 11.6212C10.6648 11.9927 10.3862 12.3031 10.0084 12.3031C9.63057 12.3031 9.31701 11.9965 9.33388 11.6191C9.35513 11.1437 9.42352 10.7384 9.64353 10.4241C9.94453 9.96807 10.5556 9.69444 10.9387 9.39345C12.0606 8.36277 11.7687 6.91252 10.2364 6.79394C9.72128 6.79394 9.26672 7.08383 9.03366 7.51461C8.85388 7.8469 8.56197 8.17123 8.18416 8.17123C7.80635 8.17123 7.49138 7.86028 7.58363 7.4939C7.8845 6.29904 8.96241 5.41666 10.2364 5.41666Z" fill="#92EDFF"/>
</g>
</g>
</svg>
