<svg width="21" height="21" viewBox="0 0 21 21" fill="none" xmlns="http://www.w3.org/2000/svg">
<path d="M3.61621 16.9541L7.21831 14.6748L7.11167 19.3633L3.61621 16.9541Z" fill="black"/>
<path d="M7.98777 21L2.07617 16.9263L8.16788 13.0713L7.98777 21ZM5.15591 16.9823L6.23569 17.7268L6.26868 16.2782L5.15591 16.9823Z" fill="black"/>
<path d="M16.5258 18.0248H7.3044C6.80018 18.0248 6.39136 17.658 6.39136 17.2055C6.39136 16.753 6.80018 16.3862 7.3044 16.3862H16.5258C17.9859 16.3862 19.174 15.32 19.174 14.0099V9.83171C19.174 9.37925 19.5828 9.0124 20.087 9.0124C20.5912 9.0124 21.0001 9.37925 21.0001 9.83171V14.0099C21.0001 16.2238 18.993 18.0248 16.5258 18.0248Z" fill="black"/>
<path d="M0.913043 14.7476C0.408819 14.7476 0 14.3807 0 13.9283V4.01494C0 1.80104 2.00709 0 4.47427 0H16.5257C18.9929 0 21 1.80104 21 4.01494V5.73517C21 6.18763 20.5912 6.55447 20.087 6.55447C19.5827 6.55447 19.1739 6.18763 19.1739 5.73517V4.01494C19.1739 2.70476 17.9858 1.63862 16.5257 1.63862H4.47427C3.0142 1.63862 1.82609 2.70476 1.82609 4.01494V13.9283C1.82609 14.3807 1.41727 14.7476 0.913043 14.7476Z" fill="black"/>
</svg>
