<svg width="18" height="18" viewBox="0 0 18 18" fill="none" xmlns="http://www.w3.org/2000/svg">
<path d="M16.4351 17.7065L12.3696 13.6333C10.8411 14.8406 8.90931 15.4181 6.96922 15.2478C5.02914 15.0775 3.22746 14.1723 1.93257 12.7173C0.637675 11.2622 -0.052542 9.36738 0.00312309 7.4202C0.0587882 5.47303 0.856078 3.62068 2.23198 2.24204C3.60788 0.8634 5.4584 0.0626428 7.40504 0.00352223C9.35168 -0.0555984 11.2474 0.631396 12.7044 1.924C14.1614 3.2166 15.0696 5.01713 15.2433 6.95734C15.417 8.89755 14.8429 10.8308 13.6386 12.3618L17.7041 16.4349C17.7944 16.5165 17.8672 16.6157 17.918 16.7263C17.9688 16.8369 17.9966 16.9568 17.9997 17.0785C18.0028 17.2001 17.9812 17.3212 17.9361 17.4343C17.891 17.5473 17.8233 17.6501 17.7373 17.7362C17.6513 17.8224 17.5488 17.8902 17.4358 17.9355C17.3229 17.9808 17.2019 18.0026 17.0802 17.9997C16.9586 17.9969 16.8387 17.9693 16.728 17.9187C16.6173 17.8681 16.5181 17.7955 16.4363 17.7053L16.4351 17.7065ZM1.81508 7.63261C1.8133 8.78026 2.15007 9.90294 2.78323 10.86C3.41639 11.8171 4.31779 12.5661 5.37456 13.0132C6.43132 13.4602 7.59653 13.5855 8.72415 13.3734C9.85177 13.1612 10.8916 12.6209 11.7137 11.8203C11.7306 11.8001 11.7497 11.7799 11.7688 11.7597C11.7879 11.7394 11.8081 11.7215 11.8294 11.7046C12.4995 11.0195 12.9908 10.18 13.2599 9.26015C13.529 8.34029 13.5677 7.36833 13.3726 6.42999C13.1774 5.49164 12.7543 4.61576 12.1408 3.87956C11.5272 3.14337 10.742 2.56951 9.85434 2.20856C8.96667 1.84762 8.00373 1.71069 7.05065 1.80986C6.09758 1.90904 5.18366 2.24126 4.38927 2.77723C3.59488 3.3132 2.94452 4.03645 2.49561 4.8832C2.04669 5.72995 1.81297 6.67418 1.81508 7.63261Z" fill="#A0A0A0"/>
</svg>
