<svg width="29" height="29" viewBox="0 0 29 29" fill="none" xmlns="http://www.w3.org/2000/svg">
<g id="noun-restart-900574 1">
<path id="Vector" d="M14.5 27.55C15.1006 27.55 15.5875 27.0631 15.5875 26.4625C15.5875 25.8619 15.1006 25.375 14.5 25.375C11.5951 25.375 8.86414 24.244 6.81036 22.1899C4.75629 20.1359 3.625 17.4049 3.625 14.5C3.625 11.5954 4.75629 8.86443 6.81036 6.81036L8.34823 8.34823V3.73433H3.73433L5.27249 5.27249C2.80749 7.7372 1.45 11.0142 1.45 14.5C1.45 17.9858 2.80749 21.2628 5.2722 23.7275C7.73691 26.1925 11.0142 27.55 14.5 27.55Z" fill="white"/>
<path id="Vector_2" d="M26.4625 13.4186C25.8622 13.4186 25.375 13.9058 25.375 14.5061C25.375 15.1061 25.8622 15.5936 26.4625 15.5936C27.0628 15.5936 27.55 15.1093 27.55 14.5061C27.55 13.9055 27.0628 13.4186 26.4625 13.4186Z" fill="white"/>
<path id="Vector_3" d="M26.6461 9.92815C26.6461 9.32785 26.1589 8.84065 25.5586 8.84065C24.9583 8.84065 24.4711 9.32785 24.4711 9.92815C24.4711 10.5282 24.9583 11.0156 25.5586 11.0156C26.1589 11.0156 26.6461 10.5313 26.6461 9.92815Z" fill="white"/>
<path id="Vector_4" d="M22.9593 4.9532C22.359 4.9532 21.8718 5.4404 21.8718 6.0407C21.8718 6.64071 22.359 7.1282 22.9593 7.1282C23.5596 7.1282 24.0468 6.6439 24.0468 6.0407C24.0468 5.4404 23.5596 4.9532 22.9593 4.9532Z" fill="white"/>
<path id="Vector_5" d="M25.5528 20.1709C26.1531 20.1709 26.6403 19.6866 26.6403 19.0834C26.6403 18.4831 26.1531 17.9959 25.5528 17.9959C24.9525 17.9959 24.4653 18.4831 24.4653 19.0834C24.4653 19.6837 24.9525 20.1709 25.5528 20.1709Z" fill="white"/>
<path id="Vector_6" d="M22.9593 21.873C22.359 21.873 21.8718 22.3602 21.8718 22.9605C21.8718 23.5605 22.359 24.048 22.9593 24.048C23.5596 24.048 24.0468 23.5637 24.0468 22.9605C24.0468 22.3602 23.5596 21.873 22.9593 21.873Z" fill="white"/>
<path id="Vector_7" d="M19.0791 26.6423C19.6794 26.6423 20.1666 26.158 20.1666 25.5548C20.1666 24.9545 19.6794 24.4673 19.0791 24.4673C18.4788 24.4673 17.9916 24.9545 17.9916 25.5548C17.9916 26.1548 18.4788 26.6423 19.0791 26.6423Z" fill="white"/>
<path id="Vector_8" d="M14.5 20.3C17.6981 20.3 20.3 17.6981 20.3 14.5C20.3 12.0713 18.7978 9.98963 16.675 9.12717V11.607C17.5534 12.269 18.125 13.3177 18.125 14.5C18.125 16.499 16.499 18.125 14.5 18.125C12.501 18.125 10.875 16.499 10.875 14.5C10.875 13.3177 11.4466 12.269 12.325 11.607V9.12717C10.2022 9.98963 8.7 12.0713 8.7 14.5C8.7 17.6981 11.3019 20.3 14.5 20.3Z" fill="white"/>
<path id="Vector_9" d="M15.5875 7.25H13.4125V13.775H15.5875V7.25Z" fill="white"/>
<path id="Vector_10" d="M18.0641 3.02731C17.8379 3.58121 18.1018 4.2166 18.6557 4.44831C18.792 4.50341 18.9312 4.52951 19.0704 4.52951C19.4967 4.52951 19.9027 4.27721 20.0767 3.85671C20.3058 3.29991 20.0419 2.66481 19.4851 2.43571C18.9312 2.20661 18.2961 2.4708 18.0641 3.02731Z" fill="white"/>
<path id="Vector_11" d="M14.4939 3.625C15.0942 3.625 15.5814 3.13751 15.5814 2.5375C15.5814 1.9372 15.0942 1.45 14.4939 1.45C13.8907 1.45 13.4064 1.9372 13.4064 2.5375C13.4064 3.13751 13.8939 3.625 14.4939 3.625Z" fill="white"/>
</g>
</svg>
