<svg width="27" height="27" viewBox="0 0 27 27" fill="none" xmlns="http://www.w3.org/2000/svg">
<path d="M19.6641 7.33329V19.6666V7.33329ZM13.4974 11.9583V19.6666V11.9583ZM7.33073 16.5833V19.6666V16.5833ZM4.2474 25.8333H22.7474C23.5651 25.8333 24.3494 25.5084 24.9276 24.9302C25.5059 24.352 25.8307 23.5677 25.8307 22.75V4.24996C25.8307 3.43221 25.5059 2.64795 24.9276 2.06971C24.3494 1.49148 23.5651 1.16663 22.7474 1.16663H4.2474C3.42964 1.16663 2.64539 1.49148 2.06715 2.06971C1.48891 2.64795 1.16406 3.43221 1.16406 4.24996V22.75C1.16406 23.5677 1.48891 24.352 2.06715 24.9302C2.64539 25.5084 3.42964 25.8333 4.2474 25.8333Z" stroke="#A0A0A0" stroke-width="2" stroke-linecap="round" stroke-linejoin="round"/>
</svg>
