<svg width="39" height="39" viewBox="0 0 39 39" fill="none" xmlns="http://www.w3.org/2000/svg">
<path d="M19.5 0.75C15.7916 0.75 12.1665 1.84967 9.08305 3.90994C5.99962 5.97022 3.59639 8.89857 2.17725 12.3247C0.758108 15.7508 0.386817 19.5208 1.11029 23.1579C1.83376 26.7951 3.6195 30.136 6.24173 32.7583C8.86397 35.3805 12.2049 37.1663 15.8421 37.8897C19.4792 38.6132 23.2492 38.2419 26.6753 36.8227C30.1014 35.4036 33.0298 33.0004 35.0901 29.9169C37.1503 26.8335 38.25 23.2084 38.25 19.5C38.25 14.5272 36.2746 9.75805 32.7583 6.24175C29.242 2.72544 24.4728 0.75 19.5 0.75ZM21.375 28.875H17.625V25.125H21.375V28.875ZM21.375 21.375H17.625V10.125H21.375V21.375Z" fill="#FF9900"/>
</svg>
